<?xml version="1.0" encoding="UTF-8" standalone="no"?>
<!DOCTYPE svg PUBLIC "-//W3C//DTD SVG 1.1//EN" "http://www.w3.org/Graphics/SVG/1.1/DTD/svg11.dtd">
<svg xmlns="http://www.w3.org/2000/svg" version="1.1" viewBox="0.00 0.00 186.00 173.00">
<g stroke-width="2.00" fill="none" stroke-linecap="butt">
<path stroke="#939597" vector-effect="non-scaling-stroke" d="
  M 104.38 94.93
  L 160.98 163.88
  A 1.47 1.45 70.2 0 0 162.11 164.42
  L 177.22 164.42
  A 0.40 0.39 70.2 0 0 177.52 163.77
  L 129.49 105.25
  A 0.55 0.55 0.0 0 1 129.81 104.36
  Q 133.93 103.52 137.35 101.91
  C 155.22 93.46 164.81 77.51 165.54 57.97
  C 165.91 48.03 163.36 35.15 156.98 26.61
  Q 146.06 11.98 130.72 8.13
  Q 122.78 6.14 108.41 6.41
  Q 104.47 6.49 63.63 6.54
  A 0.43 0.43 0.0 0 0 63.30 7.24
  L 72.10 17.96
  A 2.11 2.10 -19.8 0 0 73.72 18.72
  Q 87.80 18.66 110.80 18.66
  Q 122.42 18.65 127.41 20.24
  C 155.80 29.28 161.31 67.89 139.17 86.05
  C 133.74 90.51 125.06 93.73 118.25 93.89
  Q 105.70 94.19 104.78 94.14
  A 0.49 0.49 0.0 0 0 104.38 94.93"
/>
<path stroke="#939597" vector-effect="non-scaling-stroke" d="
  M 19.38 120.20
  L 19.38 43.50
  A 0.37 0.37 0.0 0 1 20.03 43.25
  C 28.45 52.49 35.45 61.35 44.08 70.85
  C 49.03 76.29 53.95 82.64 59.15 88.37
  C 65.68 95.57 70.85 102.11 78.58 111.04
  C 85.73 119.31 91.76 126.98 98.84 134.65
  C 101.96 138.03 104.30 141.55 107.69 145.12
  Q 109.65 147.19 114.35 152.87
  Q 118.62 158.05 123.82 164.11
  A 1.17 1.17 0.0 0 0 124.70 164.51
  L 139.85 164.51
  A 0.51 0.51 0.0 0 0 140.24 163.66
  L 7.14 7.67
  A 0.40 0.40 0.0 0 0 6.43 7.93
  L 6.43 106.25
  A 3.19 3.16 23.4 0 0 7.30 108.43
  L 18.74 120.46
  A 0.37 0.37 0.0 0 0 19.38 120.20"
/>
<path stroke="#dec3a6" vector-effect="non-scaling-stroke" d="
  M 45.74 164.46
  A 0.32 0.32 0.0 0 0 45.98 163.92
  L 7.06 123.00
  A 0.32 0.32 0.0 0 0 6.51 123.22
  L 6.51 140.00
  A 0.32 0.32 0.0 0 0 6.60 140.22
  L 29.56 164.36
  A 0.32 0.32 0.0 0 0 29.79 164.46
  L 45.74 164.46"
/>
</g>
<path fill="#fbfafb" d="
  M 186.00 0.00
  L 186.00 173.00
  L 0.00 173.00
  L 0.00 0.00
  L 186.00 0.00
  Z
  M 104.38 94.93
  L 160.98 163.88
  A 1.47 1.45 70.2 0 0 162.11 164.42
  L 177.22 164.42
  A 0.40 0.39 70.2 0 0 177.52 163.77
  L 129.49 105.25
  A 0.55 0.55 0.0 0 1 129.81 104.36
  Q 133.93 103.52 137.35 101.91
  C 155.22 93.46 164.81 77.51 165.54 57.97
  C 165.91 48.03 163.36 35.15 156.98 26.61
  Q 146.06 11.98 130.72 8.13
  Q 122.78 6.14 108.41 6.41
  Q 104.47 6.49 63.63 6.54
  A 0.43 0.43 0.0 0 0 63.30 7.24
  L 72.10 17.96
  A 2.11 2.10 -19.8 0 0 73.72 18.72
  Q 87.80 18.66 110.80 18.66
  Q 122.42 18.65 127.41 20.24
  C 155.80 29.28 161.31 67.89 139.17 86.05
  C 133.74 90.51 125.06 93.73 118.25 93.89
  Q 105.70 94.19 104.78 94.14
  A 0.49 0.49 0.0 0 0 104.38 94.93
  Z
  M 19.38 120.20
  L 19.38 43.50
  A 0.37 0.37 0.0 0 1 20.03 43.25
  C 28.45 52.49 35.45 61.35 44.08 70.85
  C 49.03 76.29 53.95 82.64 59.15 88.37
  C 65.68 95.57 70.85 102.11 78.58 111.04
  C 85.73 119.31 91.76 126.98 98.84 134.65
  C 101.96 138.03 104.30 141.55 107.69 145.12
  Q 109.65 147.19 114.35 152.87
  Q 118.62 158.05 123.82 164.11
  A 1.17 1.17 0.0 0 0 124.70 164.51
  L 139.85 164.51
  A 0.51 0.51 0.0 0 0 140.24 163.66
  L 7.14 7.67
  A 0.40 0.40 0.0 0 0 6.43 7.93
  L 6.43 106.25
  A 3.19 3.16 23.4 0 0 7.30 108.43
  L 18.74 120.46
  A 0.37 0.37 0.0 0 0 19.38 120.20
  Z
  M 45.74 164.46
  A 0.32 0.32 0.0 0 0 45.98 163.92
  L 7.06 123.00
  A 0.32 0.32 0.0 0 0 6.51 123.22
  L 6.51 140.00
  A 0.32 0.32 0.0 0 0 6.60 140.22
  L 29.56 164.36
  A 0.32 0.32 0.0 0 0 29.79 164.46
  L 45.74 164.46
  Z"
/>
<g fill="#2a2f32">
<path d="
  M 104.38 94.93
  A 0.49 0.49 0.0 0 1 104.78 94.14
  Q 105.70 94.19 118.25 93.89
  C 125.06 93.73 133.74 90.51 139.17 86.05
  C 161.31 67.89 155.80 29.28 127.41 20.24
  Q 122.42 18.65 110.80 18.66
  Q 87.80 18.66 73.72 18.72
  A 2.11 2.10 -19.8 0 1 72.10 17.96
  L 63.30 7.24
  A 0.43 0.43 0.0 0 1 63.63 6.54
  Q 104.47 6.49 108.41 6.41
  Q 122.78 6.14 130.72 8.13
  Q 146.06 11.98 156.98 26.61
  C 163.36 35.15 165.91 48.03 165.54 57.97
  C 164.81 77.51 155.22 93.46 137.35 101.91
  Q 133.93 103.52 129.81 104.36
  A 0.55 0.55 0.0 0 0 129.49 105.25
  L 177.52 163.77
  A 0.40 0.39 70.2 0 1 177.22 164.42
  L 162.11 164.42
  A 1.47 1.45 70.2 0 1 160.98 163.88
  L 104.38 94.93
  Z"
/>
<path d="
  M 19.38 120.20
  A 0.37 0.37 0.0 0 1 18.74 120.46
  L 7.30 108.43
  A 3.19 3.16 23.4 0 1 6.43 106.25
  L 6.43 7.93
  A 0.40 0.40 0.0 0 1 7.14 7.67
  L 140.24 163.66
  A 0.51 0.51 0.0 0 1 139.85 164.51
  L 124.70 164.51
  A 1.17 1.17 0.0 0 1 123.82 164.11
  Q 118.62 158.05 114.35 152.87
  Q 109.65 147.19 107.69 145.12
  C 104.30 141.55 101.96 138.03 98.84 134.65
  C 91.76 126.98 85.73 119.31 78.58 111.04
  C 70.85 102.11 65.68 95.57 59.15 88.37
  C 53.95 82.64 49.03 76.29 44.08 70.85
  C 35.45 61.35 28.45 52.49 20.03 43.25
  A 0.37 0.37 0.0 0 0 19.38 43.50
  L 19.38 120.20
  Z"
/>
</g>
<path fill="#c08c50" d="
  M 45.74 164.46
  L 29.79 164.46
  A 0.32 0.32 0.0 0 1 29.56 164.36
  L 6.60 140.22
  A 0.32 0.32 0.0 0 1 6.51 140.00
  L 6.51 123.22
  A 0.32 0.32 0.0 0 1 7.06 123.00
  L 45.98 163.92
  A 0.32 0.32 0.0 0 1 45.74 164.46
  Z"
/>
</svg>
